<?xml version="1.0" standalone="no"?>
<!DOCTYPE svg PUBLIC "-//W3C//DTD SVG 20010904//EN"
 "http://www.w3.org/TR/2001/REC-SVG-20010904/DTD/svg10.dtd">
<svg version="1.0" xmlns="http://www.w3.org/2000/svg"
 width="85.000000pt" height="250.000000pt" viewBox="0 0 85.000000 250.000000"
 preserveAspectRatio="xMidYMid meet">

<g transform="translate(0.000000,250.000000) scale(0.100000,-0.100000)"
fill="#000000" stroke="none">
<path d="M555 1895 c-14 -13 -25 -34 -25 -47 0 -18 -17 -32 -81 -67 -85 -48
-104 -64 -94 -81 10 -16 37 -12 73 10 l32 20 0 -95 c0 -54 -4 -95 -10 -95 -5
0 -21 12 -35 26 -17 17 -32 24 -43 19 -9 -4 -41 -11 -71 -15 -30 -5 -62 -17
-72 -26 -33 -30 -19 -117 25 -153 13 -11 11 -18 -15 -59 -39 -62 -40 -114 -2
-139 36 -24 111 -22 188 5 l60 21 60 -21 c33 -11 86 -21 118 -22 53 -1 61 2
83 27 13 16 24 37 24 48 0 23 -25 75 -48 101 -13 16 -12 21 11 56 40 57 44 93
14 128 -23 27 -31 29 -90 28 -35 0 -83 -8 -106 -17 l-41 -17 0 115 c0 131 3
137 81 128 39 -4 49 -2 68 18 11 12 21 36 21 51 0 36 -40 78 -75 78 -14 0 -37
-11 -50 -25z m71 -40 c4 -8 0 -22 -7 -31 -11 -13 -14 -13 -27 0 -17 17 -9 46
13 46 9 0 18 -7 21 -15z m-241 -315 c3 -5 1 -10 -4 -10 -6 0 -11 5 -11 10 0 6
2 10 4 10 3 0 8 -4 11 -10z m-49 -35 c8 -20 40 -28 64 -15 34 18 22 5 -38 -42
l-58 -45 -21 31 c-34 51 -35 56 -23 71 16 19 69 19 76 0z m368 9 c22 -9 20
-32 -6 -71 -26 -38 -29 -37 -98 14 l-51 38 38 12 c43 13 93 16 117 7z m-244
-145 c0 -63 -3 -79 -12 -72 -7 5 -32 22 -55 37 -24 16 -43 32 -43 36 0 9 91
79 103 80 4 0 7 -37 7 -81z m111 49 c38 -29 41 -33 23 -36 -27 -4 -55 -33 -57
-61 -1 -11 -7 -23 -14 -25 -10 -4 -13 13 -13 74 0 44 4 80 8 80 5 0 29 -15 53
-32z m-165 -154 c18 -10 17 -12 -4 -23 -31 -16 -128 -19 -143 -4 -9 9 -6 22
15 57 l27 46 43 -32 c24 -18 52 -38 62 -44z m289 39 c31 -47 31 -61 1 -74 -26
-12 -131 4 -142 22 -3 6 4 7 20 3 41 -10 72 3 86 35 6 17 9 35 5 40 -3 6 -4
11 -1 11 3 0 17 -17 31 -37z m-77 9 c2 -7 -3 -12 -12 -12 -9 0 -16 7 -16 16 0
17 22 14 28 -4z"/>
</g>
</svg>
